<svg version="1.1" xmlns="http://www.w3.org/2000/svg" style="display: block;" viewBox="0 0 2048 2048" width="512" height="512">
<defs>
	<linearGradient id="Gradient1" gradientUnits="userSpaceOnUse" x1="421.56" y1="1210.39" x2="484.254" y2="892.92">
		<stop class="stop0" offset="0" stop-opacity="1" stop-color="rgb(196,210,242)"/>
		<stop class="stop1" offset="1" stop-opacity="1" stop-color="rgb(241,246,246)"/>
	</linearGradient>
	<linearGradient id="Gradient2" gradientUnits="userSpaceOnUse" x1="1584.35" y1="1253.87" x2="1628.3" y2="849.596">
		<stop class="stop0" offset="0" stop-opacity="1" stop-color="rgb(200,221,242)"/>
		<stop class="stop1" offset="1" stop-opacity="1" stop-color="rgb(255,252,248)"/>
	</linearGradient>
	<linearGradient id="Gradient3" gradientUnits="userSpaceOnUse" x1="1024.21" y1="1872.14" x2="1023.2" y2="1519.76">
		<stop class="stop0" offset="0" stop-opacity="1" stop-color="rgb(201,206,243)"/>
		<stop class="stop1" offset="1" stop-opacity="1" stop-color="rgb(245,251,242)"/>
	</linearGradient>
	<linearGradient id="Gradient4" gradientUnits="userSpaceOnUse" x1="892.717" y1="1505.25" x2="1106.41" y2="1084.7">
		<stop class="stop0" offset="0" stop-opacity="1" stop-color="rgb(107,131,234)"/>
		<stop class="stop1" offset="1" stop-opacity="1" stop-color="rgb(126,180,243)"/>
	</linearGradient>
	<linearGradient id="Gradient5" gradientUnits="userSpaceOnUse" x1="691.881" y1="1141.66" x2="1375.6" y2="336.252">
		<stop class="stop0" offset="0" stop-opacity="1" stop-color="rgb(108,151,237)"/>
		<stop class="stop1" offset="1" stop-opacity="1" stop-color="rgb(159,236,240)"/>
	</linearGradient>
	<linearGradient id="Gradient6" gradientUnits="userSpaceOnUse" x1="941.63" y1="1052.45" x2="1097.53" y2="836.939">
		<stop class="stop0" offset="0" stop-opacity="1" stop-color="rgb(127,175,240)"/>
		<stop class="stop1" offset="1" stop-opacity="1" stop-color="rgb(160,243,245)"/>
	</linearGradient>
	<linearGradient id="Gradient7" gradientUnits="userSpaceOnUse" x1="942.889" y1="1350.41" x2="1087.67" y2="949.971">
		<stop class="stop0" offset="0" stop-opacity="1" stop-color="rgb(127,187,230)"/>
		<stop class="stop1" offset="1" stop-opacity="1" stop-color="rgb(152,221,245)"/>
	</linearGradient>
</defs>
<path transform="translate(0,0)" fill="url(#Gradient1)" d="M 631.712 1240.52 C 618.505 1242.89 604.751 1241.75 591.419 1241.31 C 430.344 1235.95 283.727 1112.2 266.497 948.688 C 254.81 837.788 388.783 845.337 405.794 911.985 C 409.724 927.384 409.501 943.379 414.446 958.671 C 441.543 1042.47 524.243 1083.76 609.01 1075.2 C 605.572 1128.74 611.643 1190.46 631.712 1240.52 z"/>
<path transform="translate(0,0)" fill="url(#Gradient2)" d="M 1440.94 1075.2 C 1528.27 1076.25 1601.26 1056.37 1633.77 961.812 C 1639.43 945.342 1639.63 927.864 1644.18 911.193 C 1665.47 833.271 1787.67 841.145 1785.75 938.98 C 1782.71 1094.57 1629.68 1222.45 1480.76 1238.1 C 1464.89 1239.77 1431.27 1236.95 1418.62 1240.52 C 1421.49 1223.83 1428.4 1208.07 1432.14 1191.54 C 1441.18 1151.65 1441 1115.78 1440.94 1075.2 C 1440.83 1068.95 1440.91 1062.7 1440.94 1056.45 C 1442.29 1062.46 1441.54 1069.11 1440.94 1075.2 z"/>
<path transform="translate(0,0)" fill="url(#Gradient3)" d="M 935.64 1518.3 C 1000.63 1524.26 1035.14 1530.76 1104.51 1518.3 L 1103.81 1519.84 L 1104.64 1522.03 C 1107.97 1525.46 1112.63 1526.86 1116.98 1528.64 C 1118.92 1546.07 1117.04 1570.38 1117.02 1588.46 L 1116.98 1725.13 C 1159.64 1726.06 1251.32 1716.25 1282.4 1741.02 C 1335.15 1783.07 1305.2 1867.03 1240.99 1872.93 C 1209.26 1875.84 1176.83 1874.59 1144.98 1874.6 L 875.059 1874.59 C 835.807 1874.57 797.28 1882.01 765.538 1854.94 C 735.102 1828.99 728.901 1781.36 755.796 1750.53 C 790.158 1711.15 881.401 1728.25 932.778 1725.13 C 932.097 1697.9 929.54 1533.04 935.64 1518.3 z"/>
<path transform="translate(0,0)" fill="url(#Gradient4)" d="M 631.712 1240.52 C 638.659 1238.15 668.604 1240.48 678.422 1240.5 L 1347.16 1240.48 C 1370.94 1240.45 1394.86 1239.88 1418.62 1240.52 C 1407.31 1262.66 1399.64 1286.12 1387.36 1307.92 C 1325.09 1418.45 1226.61 1489.42 1104.51 1518.3 C 1035.14 1530.76 1000.63 1524.26 935.64 1518.3 C 911.435 1509.34 886.768 1502.5 863.016 1492.21 C 747.31 1442.06 676.678 1354.21 631.712 1240.52 z"/>
<path transform="translate(0,0)" fill="url(#Gradient5)" d="M 609.01 1072.34 C 609.86 1058.23 609.061 1043.63 609.037 1029.47 L 608.99 683.483 C 608.985 613.01 604.573 540.499 622.589 471.672 C 694.803 195.787 1025.86 69.3806 1262.65 238.623 C 1358.26 306.964 1425.3 416.471 1438.39 533.525 C 1441.84 564.374 1440.97 595.613 1440.95 626.599 L 1440.94 1056.45 C 1440.91 1062.7 1440.83 1068.95 1440.94 1075.2 C 1441 1115.78 1441.18 1151.65 1432.14 1191.54 C 1428.4 1208.07 1421.49 1223.83 1418.62 1240.52 L 1418.62 1240.52 C 1394.86 1239.88 1370.94 1240.45 1347.16 1240.48 L 678.422 1240.5 C 668.604 1240.48 638.659 1238.15 631.712 1240.52 L 631.712 1240.52 C 611.643 1190.46 605.572 1128.74 609.01 1075.2 L 609.01 1072.34 z"/>
<path transform="translate(0,0)" fill="url(#Gradient6)" d="M 1009.38 855.427 L 1067.52 855.263 C 1102.27 855.171 1130.85 854.054 1157.77 879.777 C 1193.93 914.324 1192.8 973.461 1158.16 1008.58 C 1124.03 1043.18 1076.78 1033.92 1032.75 1033.98 C 1005.3 1034.03 938.021 1037.26 913.617 1029.62 C 850.227 1009.79 839.791 925.012 882.648 880.664 C 915.464 846.705 966.683 856.237 1009.38 855.427 z"/>
<path transform="translate(0,0)" fill="url(#Gradient7)" d="M 609.01 1072.34 L 610.024 1075.35 C 612.218 1076.15 824.469 1075.18 843.675 1075.18 L 1376.24 1075.24 C 1397.58 1075.27 1419.66 1076.51 1440.94 1075.2 C 1441 1115.78 1441.18 1151.65 1432.14 1191.54 C 1428.4 1208.07 1421.49 1223.83 1418.62 1240.52 L 1418.62 1240.52 C 1394.86 1239.88 1370.94 1240.45 1347.16 1240.48 L 678.422 1240.5 C 668.604 1240.48 638.659 1238.15 631.712 1240.52 L 631.712 1240.52 C 611.643 1190.46 605.572 1128.74 609.01 1075.2 L 609.01 1072.34 z"/>
</svg>